<?xml version="1.0" encoding="utf-8"?>
<!-- Generator: Adobe Illustrator 16.0.0, SVG Export Plug-In . SVG Version: 6.00 Build 0)  -->
<!DOCTYPE svg PUBLIC "-//W3C//DTD SVG 1.1//EN" "http://www.w3.org/Graphics/SVG/1.1/DTD/svg11.dtd">
<svg version="1.1" id="Capa_1" xmlns="http://www.w3.org/2000/svg" xmlns:xlink="http://www.w3.org/1999/xlink" x="0px" y="0px"
	 width="222px" height="141px" viewBox="0 0 222 141" enable-background="new 0 0 222 141" xml:space="preserve">
<g id="Capa_2">
</g>
<g id="Capa_3">
	<g>
		
			<rect x="17.2" y="82.9" fill="#CDAF00" stroke="#CDAF00" stroke-width="1.0018" stroke-miterlimit="10" width="48.3" height="58.1"/>
		<line fill="none" stroke="#CDAF00" stroke-width="1.0018" stroke-miterlimit="10" x1="65" y1="82.8" x2="81" y2="66.8"/>
		<line fill="none" stroke="#CDAF00" stroke-width="1.0018" stroke-miterlimit="10" x1="1.1" y1="66.8" x2="17" y2="82.8"/>
	</g>
	<path fill="none" stroke="#CDAF00" stroke-width="1.1614" stroke-miterlimit="10" d="M166.8,0.3c-32,16.5-10.9,32.6-10.2,39.4
		c0.4,3.9,4,18.7,4,22.7c0,3.8-0.9,6.8-1.8,15.4c-0.6,6-2.3,14-0.2,16.9c3.5,5,10-1.5,12.3,0.6c3.1,2.8,7.4,8.6,11.4,16.9
		c4.5,9.3,7.8,10.3,11.9,11c7.6,1.2,17.9-14.9,27.4-0.6"/>
	<path fill="none" stroke="#CDAF00" stroke-width="1.1614" stroke-miterlimit="10" d="M180.5,103c0,0,9.9-6,8.3-13.6"/>
	<path fill="none" stroke="#CDAF00" stroke-width="1.1614" stroke-miterlimit="10" d="M162.6,48.7c3.6-5.8,11.4-4.2,17.7,4.2"/>
	
		<ellipse transform="matrix(-0.4109 -0.9117 0.9117 -0.4109 184.7627 246.1563)" fill="#CDAF00" cx="171.9" cy="63.4" rx="2.7" ry="2.4"/>
	<path fill="none" stroke="#CDAF00" stroke-width="1.0276" stroke-miterlimit="10" d="M98.2,110.1c0.5,0-4.1,0.8-3.9,3.6
		c0,0.7,1,6.8,3.6,6.6c-1.5,0.7-1.2,2.7-0.9,3.2c1.5,2.1,3.1,3.1,3.1,3.1c-0.8,0.8-1,2.6-0.7,3.3c0.3,0.6,1.2,1.5,2.1,2.2
		c1.8,1.5,3.1,1.6,5.1,0.5c1.2,0.2,2.9,0.5,4.4,0.5c2.9,2.3,7.7,6.8,14.2,7.4"/>
	<path fill="none" stroke="#CDAF00" stroke-width="1.0276" stroke-miterlimit="10" d="M96.9,103.5c-5.4,0.5-7.4,1.2-7.2,3.9
		c0.2,2.3,4,3.2,7.9,2.9"/>
	<path fill="none" stroke="#CDAF00" stroke-width="1.0276" stroke-miterlimit="10" d="M130,109.7c0,0-0.5-0.3-1.7-1"/>
	<path fill="none" stroke="#CDAF00" stroke-width="1.0276" stroke-miterlimit="10" d="M99,112.1l-7.6-33.4c-0.2-0.9,0.3-1.8,1.2-2
		L118,71c0.9-0.2,1.8,0.4,2,1.2l9.5,41.2"/>
	<line fill="none" stroke="#CDAF00" stroke-width="1.0276" stroke-miterlimit="10" x1="129.8" y1="124.8" x2="108" y2="129.7"/>
	<g>
		
			<rect x="105.7" y="93.3" transform="matrix(-0.9748 0.2229 -0.2229 -0.9748 241.7477 172.3987)" fill="#CDAF00" stroke="#CDAF00" stroke-width="1.0032" stroke-miterlimit="10" width="10.9" height="13.1"/>
		<line fill="none" stroke="#CDAF00" stroke-width="1.0032" stroke-miterlimit="10" x1="114.9" y1="92.3" x2="117.6" y2="87.9"/>
		<line fill="none" stroke="#CDAF00" stroke-width="1.0032" stroke-miterlimit="10" x1="100" y1="92" x2="104.3" y2="94.7"/>
	</g>
	<circle fill="none" stroke="#CDAF00" stroke-width="0.5007" stroke-miterlimit="10" cx="116.9" cy="122.7" r="1.6"/>
	<path fill="none" stroke="#CDAF00" stroke-width="1.0276" stroke-miterlimit="10" d="M129.8,127.5c0,0-1.3-4.4-0.9-10.1
		c0.3-3.4,1.3-8.8,0.7-10.4c-0.4-1-1.5-2.3-2.5-4.4c-0.9-1.8-1.8-7.4-1.9-8.5c-0.1-1.9,0.7-5.8,3.1-5.1c0.8,0.2,2.5,4.3,5.7,7.3
		c3.2,3.1,5.5,7.5,7,11.2c1.7,4.4,2.9,17.2,3.2,18.7s4.9,6.9,8.5,10.7"/>
	<path fill="none" stroke="#CDAF00" stroke-width="1.0276" stroke-miterlimit="10" d="M106.7,132.5c0.9-0.4,1.5-2.3,1-3.7
		c-0.5-1.3-2.6-2.6-3.5-2.7"/>
	<path fill="none" stroke="#CDAF00" stroke-width="1.0276" stroke-miterlimit="10" d="M100,126.5c0.6,0.7,6.3,1.3,5.5-3.7
		c-0.4-2.5-4.4-4.1-4.4-4.1"/>
	<path fill="none" stroke="#CDAF00" stroke-width="1.0276" stroke-miterlimit="10" d="M97.6,120.3c0,0,2.6,0.2,3.6-1.9
		c0.9-2,0.3-3.9-0.9-5.3c-0.9-1-1.9-1.3-1.9-1.3"/>
</g>
</svg>
