<?xml version="1.0" encoding="utf-8"?>
<!-- Generator: Adobe Illustrator 16.0.0, SVG Export Plug-In . SVG Version: 6.00 Build 0)  -->
<!DOCTYPE svg PUBLIC "-//W3C//DTD SVG 1.1//EN" "http://www.w3.org/Graphics/SVG/1.1/DTD/svg11.dtd">
<svg version="1.1" xmlns="http://www.w3.org/2000/svg" xmlns:xlink="http://www.w3.org/1999/xlink" x="0px" y="0px" width="800px"
	 height="1715px" viewBox="0 0 800 1715" enable-background="new 0 0 800 1715" xml:space="preserve">
<g id="Capa_1" display="none">
	
		<image display="inline" overflow="visible" width="628" height="1715" xlink:href="B6FFC303.jpg"  transform="matrix(0.9999 0 0 0.9999 0 0)">
	</image>
</g>
<g id="Capa_3" display="none">
</g>
<g id="Capa_2">
	<g opacity="0.9">
		<path opacity="0.5" fill="none" stroke="#383838" stroke-width="1.1387" stroke-miterlimit="10" d="M102,723.6
			c-42-47.6-72.8-106.1-87.6-172.3c-14.8-66.6-11.6-133,6.4-194.1"/>
		<path opacity="0.5" fill="none" stroke="#383838" stroke-width="1.1387" stroke-miterlimit="10" d="M99.9,212.5
			c52.6-60.9,124.6-106,209.2-124.9c209.4-46.7,417,85.2,463.7,294.7c46.7,209.4-85.2,417-294.7,463.7
			c-83.4,18.6-166.5,8.9-239.2-22.8"/>
	</g>
	<g>
		<g>
			<path fill="none" stroke="#FFDA03" stroke-width="0.6832" stroke-miterlimit="10" d="M321.3,796.6
				c-74.9-16.3-140.5-57.5-187.7-114.5"/>
			<g>
				<polygon fill="#FFDA03" points="137.2,681.9 137.1,682.6 133.8,682.3 133.6,685.6 133,685.6 133.1,681.5 				"/>
			</g>
		</g>
	</g>
	<g opacity="0.7">
		<path fill="#FFFFFF" d="M122.8,661.5l-1-0.5c0.6-1.3,0.7-2.3,0.2-3c-0.2-0.3-0.5-0.6-0.8-0.7c-0.3-0.2-0.7-0.2-1-0.2
			c-0.3,0-0.7,0.1-0.9,0.3c-0.3,0.2-0.5,0.5-0.7,1c-0.2,0.6-0.3,1.5-0.4,2.7c0,1.2-0.1,2-0.3,2.4c-0.2,0.6-0.6,1.1-1.1,1.5
			c-0.4,0.3-0.8,0.5-1.3,0.5c-0.5,0-0.9,0-1.4-0.3c-0.4-0.2-0.8-0.5-1.1-1c-0.3-0.4-0.5-0.9-0.5-1.5s0.1-1.2,0.3-2.1l1.1,0.4
			c-0.2,0.7-0.3,1.2-0.3,1.5c0,0.4,0.1,0.7,0.3,1c0.3,0.4,0.6,0.6,1,0.7c0.4,0.1,0.8,0,1.1-0.2c0.2-0.1,0.4-0.3,0.5-0.5
			s0.2-0.5,0.3-0.9c0-0.2,0.1-0.8,0.1-1.9c0-1.2,0.2-2.2,0.4-2.8c0.3-0.6,0.6-1.1,1.1-1.4c0.7-0.5,1.5-0.6,2.3-0.5
			c0.9,0.2,1.6,0.6,2.1,1.4c0.4,0.6,0.6,1.2,0.6,1.9C123.4,659.8,123.2,660.6,122.8,661.5z"/>
		<path fill="#FFFFFF" d="M107.9,656.3l-3.6-5.5l0.9-0.6l3,4.5l3-2l-2.9-4.5l0.9-0.6l2.9,4.5l3.8-2.5l-2.9-4.5l0.9-0.6l3.6,5.5
			L107.9,656.3z"/>
		<path fill="#FFFFFF" d="M109.9,642.3l-1-0.5c0.7-1.2,0.9-2.2,0.4-3c-0.2-0.3-0.5-0.6-0.8-0.8c-0.3-0.2-0.7-0.3-1-0.3
			c-0.3,0-0.7,0.1-1,0.3c-0.3,0.2-0.6,0.5-0.8,0.9c-0.3,0.6-0.4,1.4-0.6,2.6c-0.1,1.2-0.3,2-0.4,2.3c-0.3,0.6-0.6,1.1-1.2,1.4
			c-0.4,0.3-0.9,0.4-1.4,0.4c-0.5,0-0.9-0.1-1.4-0.4c-0.4-0.2-0.8-0.6-1-1c-0.3-0.5-0.4-1-0.4-1.5c0-0.5,0.1-1.2,0.5-2l1.1,0.4
			c-0.3,0.7-0.4,1.2-0.4,1.5c0,0.4,0.1,0.7,0.3,1c0.2,0.4,0.6,0.6,0.9,0.8c0.4,0.1,0.8,0.1,1.1-0.2c0.2-0.1,0.4-0.3,0.5-0.5
			c0.1-0.2,0.3-0.5,0.4-0.9c0-0.2,0.1-0.8,0.2-1.9c0.1-1.2,0.3-2.1,0.6-2.8c0.3-0.6,0.7-1.1,1.2-1.4c0.7-0.4,1.5-0.5,2.3-0.3
			c0.9,0.2,1.5,0.7,2,1.5c0.4,0.6,0.5,1.2,0.5,1.9S110.4,641.4,109.9,642.3z"/>
		<path fill="#FFFFFF" d="M95.5,636.3l-0.6-1l10-5.7l0.6,1L95.5,636.3z"/>
		<path fill="#FFFFFF" d="M89.1,625.1c-0.8-1.5-1-3.1-0.5-4.7c0.5-1.6,1.5-2.7,3-3.5c1.5-0.8,3-0.9,4.6-0.4c1.6,0.5,2.8,1.5,3.5,3
			c0.8,1.5,0.9,3,0.4,4.6c-0.5,1.6-1.5,2.7-2.9,3.5c-1,0.5-2,0.7-3.1,0.7c-1.1,0-2.1-0.3-3-0.9C90.3,626.8,89.6,626,89.1,625.1z
			 M90.1,624.5c0.4,0.8,1,1.4,1.7,1.8c0.7,0.5,1.5,0.7,2.4,0.8c0.9,0,1.7-0.2,2.5-0.6c1.2-0.6,2-1.6,2.4-2.8
			c0.4-1.3,0.3-2.5-0.3-3.7c-0.4-0.8-1-1.4-1.7-1.9c-0.7-0.5-1.5-0.7-2.4-0.8c-0.9,0-1.7,0.2-2.5,0.6c-0.8,0.4-1.4,1-1.9,1.7
			c-0.5,0.7-0.7,1.5-0.7,2.4C89.5,622.9,89.7,623.8,90.1,624.5z"/>
		<path fill="#FFFFFF" d="M94.3,609.3l-10.4,4.8l-0.1-0.2l4.8-10.6l-8,3.7l-0.5-1l10.4-4.8l0.1,0.2l-4.7,10.5l7.9-3.6L94.3,609.3z"
			/>
		<path fill="#FFFFFF" d="M77.6,599.9l-2.5-6.1l1-0.4l2.1,5l3.3-1.4l-2-5l1-0.4l2,5l4.2-1.7l-2-5l1-0.4l2.5,6L77.6,599.9z"/>
		<path fill="#FFFFFF" d="M82.2,586.5l-0.9-0.7c0.9-1.1,1.3-2,0.9-2.9c-0.1-0.4-0.3-0.7-0.6-0.9c-0.3-0.3-0.6-0.4-0.9-0.5
			c-0.3-0.1-0.7,0-1,0.1c-0.4,0.1-0.7,0.4-0.9,0.8c-0.4,0.5-0.7,1.3-1,2.5c-0.3,1.1-0.6,1.9-0.8,2.2c-0.4,0.6-0.8,1-1.4,1.2
			c-0.5,0.2-0.9,0.2-1.4,0.1c-0.5-0.1-0.9-0.3-1.3-0.6c-0.4-0.3-0.6-0.7-0.8-1.2c-0.2-0.5-0.2-1-0.2-1.6c0.1-0.5,0.4-1.2,0.9-1.9
			l1,0.6c-0.4,0.6-0.6,1.1-0.7,1.4c-0.1,0.3,0,0.7,0.1,1c0.2,0.4,0.4,0.7,0.8,0.9c0.4,0.2,0.7,0.2,1.1,0.1c0.2-0.1,0.4-0.2,0.6-0.4
			c0.2-0.2,0.4-0.4,0.5-0.8c0.1-0.2,0.3-0.8,0.6-1.8c0.3-1.2,0.7-2,1.1-2.6c0.4-0.5,0.9-0.9,1.4-1.1c0.8-0.3,1.6-0.2,2.4,0.1
			c0.8,0.4,1.3,1,1.7,1.8c0.2,0.7,0.3,1.3,0.1,2C83.2,585,82.8,585.7,82.2,586.5z"/>
		<path fill="#FFFFFF" d="M77.5,566.8l-11,3.3l-0.7-2.3c-0.5-1.6-0.7-2.9-0.7-3.7c0.1-1.2,0.4-2.2,1.2-3.1c0.7-0.9,1.7-1.5,3-1.9
			c1.1-0.3,2.1-0.4,3.1-0.2c1,0.2,1.8,0.7,2.4,1.3c0.6,0.6,1.1,1.6,1.6,3L77.5,566.8z M76.2,566l-0.4-1.3c-0.5-1.5-0.9-2.5-1.2-3.1
			c-0.5-0.7-1.2-1.2-2-1.5c-0.8-0.3-1.8-0.2-2.8,0.1c-1.1,0.3-1.9,0.8-2.5,1.6c-0.6,0.7-0.9,1.6-0.9,2.6c0,0.7,0.2,1.9,0.7,3.5
			l0.2,0.8L76.2,566z"/>
		<path fill="#FFFFFF" d="M62.2,555.1l-1.6-6.4l1.1-0.3l1.3,5.3l3.5-0.9l-1.3-5.2l1.1-0.3l1.3,5.2l4.4-1.1l-1.3-5.2l1.1-0.3l1.6,6.3
			L62.2,555.1z"/>
		<path fill="#FFFFFF" d="M57.6,535.5l-1.3-6.4l1.1-0.2l1,5.3l3.5-0.7l-1-5.3l1.1-0.2l1,5.3l4.4-0.9l-1-5.3l1.1-0.2l1.2,6.4
			L57.6,535.5z"/>
		<path fill="#FFFFFF" d="M55.5,524l-0.2-1.3l4-3.4l-4.8-2l-0.2-1.3l6,2.5l5.3-4.5l0.2,1.3l-4.3,3.7l5.2,2.2l0.2,1.3l-6.4-2.7
			L55.5,524z"/>
		<path fill="#FFFFFF" d="M53.5,510.2l-0.3-2.3c-0.2-1.3-0.2-2.2-0.1-2.7c0.1-0.7,0.4-1.2,0.8-1.7c0.4-0.5,1.1-0.7,1.8-0.8
			c0.8-0.1,1.4,0,1.9,0.4c0.5,0.3,0.9,0.9,1.2,1.5c0.2,0.5,0.4,1.5,0.5,2.9l0.1,0.8l5.3-0.6l0.1,1.1L53.5,510.2z M54.4,508.9
			l3.9-0.4l-0.2-1.9c-0.1-0.8-0.2-1.3-0.4-1.7c-0.2-0.3-0.4-0.6-0.8-0.8c-0.3-0.2-0.7-0.2-1.1-0.2c-0.4,0-0.7,0.2-1,0.4
			c-0.3,0.2-0.5,0.5-0.6,0.9c-0.1,0.4-0.1,0.9,0,1.7L54.4,508.9z"/>
		<path fill="#FFFFFF" d="M52.1,497.1l-0.5-6.5l1.1-0.1l0.4,5.4l3.6-0.3l-0.4-5.4l1.1-0.1l0.4,5.4l4.5-0.4l-0.4-5.4l1.1-0.1l0.5,6.5
			L52.1,497.1z"/>
		<path fill="#FFFFFF" d="M51.2,484.9l-0.1-2.3c-0.1-1.3,0-2.1,0-2.6c0.1-0.7,0.4-1.3,0.9-1.7c0.5-0.4,1.1-0.7,1.9-0.7
			c0.6,0,1.2,0.1,1.7,0.4c0.5,0.3,0.9,0.7,1.1,1.2c0.3,0.5,0.4,1.3,0.5,2.2l5.1-4.3l0.1,1.4l-5.1,4.3l0,0.6l5.3-0.2l0,1.1
			L51.2,484.9z M52.3,483.7l3.9-0.2l-0.1-2c0-0.8-0.1-1.3-0.3-1.7c-0.2-0.4-0.4-0.6-0.7-0.8c-0.3-0.2-0.7-0.3-1.1-0.3
			c-0.4,0-0.7,0.1-1,0.4c-0.3,0.2-0.5,0.5-0.6,0.8c-0.1,0.3-0.2,0.9-0.1,1.7L52.3,483.7z"/>
		<path fill="#FFFFFF" d="M50.8,471.8l0-1.1l11.5-0.2l0,1.1L50.8,471.8z"/>
		<path fill="#FFFFFF" d="M62.2,465.2l-11.4-1.9l0-0.2l9.5-4.4l-9.3-4.8l0-0.2l11.5-1.4l0,1.1l-8.2,0.9l8.1,4.2l0,0.3l-8.4,3.9
			l8.2,1.3L62.2,465.2z"/>
		<path fill="#FFFFFF" d="M51.4,446l0.4-6.5l1.1,0.1l-0.4,5.4l3.6,0.2l0.4-5.4l1.1,0.1l-0.4,5.4l4.5,0.3l0.4-5.4l1.1,0.1l-0.4,6.5
			L51.4,446z"/>
		<path fill="#FFFFFF" d="M63.7,435l-11.4-1.2l0-0.2l9.6-6.6l-8.7-1l0.1-1.1l11.4,1.2l0,0.3l-9.4,6.6l8.6,0.9L63.7,435z"/>
		<path fill="#FFFFFF" d="M55.1,419.7l-1.1-0.2l0.9-6.2l1.1,0.2l-0.4,2.5l10.2,1.5l-0.2,1.2l-10.2-1.5L55.1,419.7z"/>
		<path fill="#FFFFFF" d="M56.6,403.4l12.2-3.2l-0.2,1.2l-4,1.1l-0.9,4.9l3.4,2.4l-0.2,1.3l-10.3-7.4L56.6,403.4z M59,404l3.7,2.7
			l0.7-3.9L59,404z"/>
		<path fill="#FFFFFF" d="M63.2,382.9l0.5,1c-0.7,0.3-1.4,0.8-1.8,1.4c-0.5,0.6-0.8,1.3-1,2.1c-0.2,0.9-0.2,1.8,0.1,2.6
			c0.2,0.9,0.7,1.6,1.3,2.2c0.6,0.6,1.4,1,2.3,1.2c1.4,0.3,2.6,0.1,3.7-0.6c1.1-0.7,1.9-1.8,2.2-3.2c0.4-1.6,0.1-3-0.9-4.4l0.9-0.7
			c0.6,0.7,1,1.5,1.2,2.5c0.2,0.9,0.2,1.9-0.1,2.9c-0.5,2-1.5,3.3-3,4.2c-1.3,0.7-2.8,0.8-4.3,0.5c-1.6-0.4-2.9-1.3-3.7-2.7
			c-0.8-1.4-1.1-3-0.7-4.7c0.2-1,0.7-1.9,1.3-2.7C61.6,383.8,62.4,383.2,63.2,382.9z"/>
		<path fill="#FFFFFF" d="M62.7,376.8l0.3-1.1l11.1,3l-0.3,1.1L62.7,376.8z"/>
		<path fill="#FFFFFF" d="M63.3,362.8l0.5-1.6l1.6,2.9l-0.3,1L63.3,362.8z M66,364.3c0.5-1.7,1.5-2.9,3-3.6c1.5-0.8,3-0.9,4.6-0.4
			c1.6,0.5,2.8,1.5,3.6,2.9c0.8,1.5,0.9,3,0.4,4.6c-0.5,1.6-1.5,2.8-2.9,3.6c-1.5,0.8-3,0.9-4.6,0.4c-1.1-0.3-1.9-0.9-2.7-1.7
			c-0.7-0.8-1.2-1.7-1.5-2.7C65.7,366.4,65.7,365.4,66,364.3z M67.1,364.6c-0.3,0.8-0.3,1.6-0.1,2.5c0.2,0.9,0.6,1.6,1.2,2.2
			c0.6,0.6,1.3,1.1,2.2,1.4c1.3,0.4,2.5,0.3,3.7-0.3c1.2-0.6,2-1.6,2.4-2.8c0.3-0.8,0.3-1.7,0.1-2.5c-0.2-0.9-0.6-1.6-1.2-2.2
			c-0.6-0.6-1.3-1.1-2.2-1.4c-0.9-0.3-1.7-0.3-2.5-0.1c-0.8,0.2-1.6,0.6-2.2,1.2C67.8,363.1,67.4,363.8,67.1,364.6z"/>
		<path fill="#FFFFFF" d="M80.9,356.8l-10.8-3.9l0.1-0.2l10.9-4.1l-8.2-3l0.4-1.1l10.8,3.9l-0.1,0.2l-10.7,4.1l8.1,3L80.9,356.8z"/>
		<path fill="#FFFFFF" d="M78.7,330.9l0.5-1l6.3,2.8c0.7,0.3,1.2,0.5,1.4,0.6c0.4,0.1,0.8,0.2,1.2,0.1c0.4-0.1,0.7-0.3,1.1-0.6
			c0.4-0.3,0.6-0.7,0.8-1.1c0.2-0.3,0.2-0.7,0.2-1.1c0-0.4-0.1-0.7-0.3-1.1c-0.2-0.3-0.4-0.6-0.7-0.9c-0.2-0.2-0.8-0.5-1.6-0.8
			l-6.3-2.8l0.5-1l6.3,2.8c0.9,0.4,1.6,0.8,2.1,1.3c0.5,0.4,0.8,1,1,1.8c0.2,0.7,0.1,1.5-0.2,2.3c-0.4,0.8-0.9,1.5-1.6,1.9
			c-0.7,0.4-1.4,0.6-2.1,0.5c-0.5-0.1-1.2-0.3-2.3-0.8L78.7,330.9z"/>
		<path fill="#FFFFFF" d="M84.3,318.6l0.6-1.2l5.2-0.5l-2.8-4.4l0.6-1.2l3.4,5.5l6.9-0.6l-0.6,1.2l-5.7,0.5l3,4.8l-0.6,1.2l-3.7-5.9
			L84.3,318.6z"/>
	</g>
	
		<rect x="104.2" y="1030.1" transform="matrix(0.9816 0.191 -0.191 0.9816 264.087 -45.394)" fill="#26539C" width="526.6" height="634"/>
</g>
</svg>
