<?xml version="1.0" encoding="utf-8"?>
<!-- Generator: Adobe Illustrator 16.0.0, SVG Export Plug-In . SVG Version: 6.00 Build 0)  -->
<!DOCTYPE svg PUBLIC "-//W3C//DTD SVG 1.1//EN" "http://www.w3.org/Graphics/SVG/1.1/DTD/svg11.dtd">
<svg version="1.1" xmlns="http://www.w3.org/2000/svg" xmlns:xlink="http://www.w3.org/1999/xlink" x="0px" y="0px" width="1145px"
	 height="978px" viewBox="0 0 1145 978" enable-background="new 0 0 1145 978" xml:space="preserve">
<g id="Capa_1" display="none">
	
		<circle display="inline" fill="none" stroke="#364E98" stroke-width="0.7506" stroke-miterlimit="10" stroke-dasharray="4.7753" cx="1121" cy="65.5" r="24"/>
	
		<image display="inline" overflow="visible" width="776" height="978" xlink:href="60C2215B.jpg"  transform="matrix(0.9999 0 0 0.9999 376 -6)">
	</image>
</g>
<g id="Capa_3">
	<line fill="none" stroke="#364E98" stroke-miterlimit="10" stroke-dasharray="4.7753" x1="-18" y1="64.9" x2="1094.3" y2="64.9"/>
	<g>
		<g>
			<polyline fill="none" stroke="#254AA5" stroke-miterlimit="10" points="976.9,862.3 976.4,864.7 974.1,864.2 			"/>
			
				<line fill="none" stroke="#254AA5" stroke-miterlimit="10" stroke-dasharray="4.7404,4.7404" x1="969.4" y1="863.4" x2="132.7" y2="708.6"/>
			<polyline fill="none" stroke="#254AA5" stroke-miterlimit="10" points="130.4,708.1 128.1,707.7 128.5,705.4 			"/>
			
				<line fill="none" stroke="#254AA5" stroke-miterlimit="10" stroke-dasharray="4.7678,4.7678" x1="129.4" y1="700.7" x2="255.6" y2="18.5"/>
			<polyline fill="none" stroke="#254AA5" stroke-miterlimit="10" points="256,16.2 256.5,13.9 258.8,14.3 			"/>
			
				<line fill="none" stroke="#254AA5" stroke-miterlimit="10" stroke-dasharray="4.7403,4.7403" x1="263.5" y1="15.2" x2="1100.1" y2="170"/>
			<polyline fill="none" stroke="#254AA5" stroke-miterlimit="10" points="1102.5,170.4 1104.8,170.8 1104.4,173.2 			"/>
			
				<line fill="none" stroke="#254AA5" stroke-miterlimit="10" stroke-dasharray="4.7678,4.7678" x1="1103.5" y1="177.9" x2="977.3" y2="860"/>
		</g>
	</g>
	<polygon fill="#FFDA00" points="853.7,961.4 5.3,804.4 99.8,293.6 948.2,450.5 	"/>
	<circle fill="none" stroke="#364E98" stroke-miterlimit="10" stroke-dasharray="4.5092" cx="1121.9" cy="65.2" r="22.6"/>
</g>
</svg>
