<?xml version="1.0" encoding="utf-8"?>
<!-- Generator: Adobe Illustrator 16.0.0, SVG Export Plug-In . SVG Version: 6.00 Build 0)  -->
<!DOCTYPE svg PUBLIC "-//W3C//DTD SVG 1.1//EN" "http://www.w3.org/Graphics/SVG/1.1/DTD/svg11.dtd">
<svg version="1.1" xmlns="http://www.w3.org/2000/svg" xmlns:xlink="http://www.w3.org/1999/xlink" x="0px" y="0px" width="29px"
	 height="18px" viewBox="0 0 29 18" enable-background="new 0 0 29 18" xml:space="preserve">
<g id="Capa_1" display="none">
	
		<circle display="inline" fill="none" stroke="#364E98" stroke-width="0.7506" stroke-miterlimit="10" stroke-dasharray="4.7753" cx="568" cy="-414.2" r="24"/>
	
		<image display="inline" overflow="visible" width="776" height="978" xlink:href="CE8765C0.jpg"  transform="matrix(0.9999 0 0 0.9999 -177.041 -485.7109)">
	</image>
</g>
<g id="Capa_3">
	<g>
		<circle fill="#FFDA03" cx="14.5" cy="6.4" r="5.4"/>
		<path fill="#FFDA03" d="M14.4,18C6.6,18,0.3,10.8,0.3,1.9c0-1,0.8-1.9,1.9-1.9S4,0.8,4,1.9c0,7.6,5.4,12.4,10.4,12.4
			c5.3,0,10.8-4.6,10.8-12.4c0-1,0.8-1.9,1.9-1.9S29,0.8,29,1.9C29,12,21.6,18,14.4,18z"/>
	</g>
</g>
</svg>
