<?xml version="1.0" encoding="utf-8"?>
<!-- Generator: Adobe Illustrator 16.0.0, SVG Export Plug-In . SVG Version: 6.00 Build 0)  -->
<!DOCTYPE svg PUBLIC "-//W3C//DTD SVG 1.1//EN" "http://www.w3.org/Graphics/SVG/1.1/DTD/svg11.dtd">
<svg version="1.1" id="Capa_2" xmlns="http://www.w3.org/2000/svg" xmlns:xlink="http://www.w3.org/1999/xlink" x="0px" y="0px"
	 width="1900px" height="1714px" viewBox="0 0 1900 1714" enable-background="new 0 0 1900 1714" xml:space="preserve">
<line fill="none" stroke="#364E98" stroke-miterlimit="10" stroke-dasharray="4.7753" x1="-390" y1="70.9" x2="722.3" y2="70.9"/>
<g>
	<g>
		<polyline fill="none" stroke="#254AA5" stroke-miterlimit="10" points="604.9,868.3 604.4,870.7 602.1,870.2 		"/>
		
			<line fill="none" stroke="#254AA5" stroke-miterlimit="10" stroke-dasharray="4.7404,4.7404" x1="597.4" y1="869.4" x2="-239.3" y2="714.6"/>
		<polyline fill="none" stroke="#254AA5" stroke-miterlimit="10" points="-241.6,714.1 -243.9,713.7 -243.5,711.4 		"/>
		
			<line fill="none" stroke="#254AA5" stroke-miterlimit="10" stroke-dasharray="4.7678,4.7678" x1="-242.6" y1="706.7" x2="-116.4" y2="24.5"/>
		<polyline fill="none" stroke="#254AA5" stroke-miterlimit="10" points="-116,22.2 -115.5,19.9 -113.2,20.3 		"/>
		
			<line fill="none" stroke="#254AA5" stroke-miterlimit="10" stroke-dasharray="4.7403,4.7403" x1="-108.5" y1="21.2" x2="728.1" y2="176"/>
		<polyline fill="none" stroke="#254AA5" stroke-miterlimit="10" points="730.5,176.4 732.8,176.8 732.4,179.2 		"/>
		
			<line fill="none" stroke="#254AA5" stroke-miterlimit="10" stroke-dasharray="4.7678,4.7678" x1="731.5" y1="183.9" x2="605.3" y2="866"/>
	</g>
</g>
<polygon fill="#FFDA00" points="481.7,967.4 -366.7,810.4 -272.2,299.6 576.2,456.5 "/>
<circle fill="none" stroke="#364E98" stroke-miterlimit="10" stroke-dasharray="4.5092" cx="749.9" cy="71.2" r="22.6"/>
<g opacity="0.9">
	<path opacity="0.5" fill="none" stroke="#383838" stroke-width="1.1387" stroke-miterlimit="10" d="M1375,721.6
		c-42-47.6-72.8-106.1-87.6-172.3c-14.8-66.6-11.6-133,6.4-194.1"/>
	<path opacity="0.5" fill="none" stroke="#383838" stroke-width="1.1387" stroke-miterlimit="10" d="M1372.9,210.5
		c52.6-60.9,124.6-106,209.2-124.9c209.4-46.7,417,85.2,463.7,294.7c46.7,209.4-85.2,417-294.7,463.7
		c-83.4,18.6-166.5,8.9-239.2-22.8"/>
</g>
<g>
	<g>
		<path fill="none" stroke="#FFDA03" stroke-width="0.6832" stroke-miterlimit="10" d="M1594.3,794.6
			c-74.9-16.3-140.5-57.5-187.7-114.5"/>
		<g>
			<polygon fill="#FFDA03" points="1410.2,679.9 1410.1,680.6 1406.8,680.3 1406.6,683.6 1406,683.6 1406.1,679.5 			"/>
		</g>
	</g>
</g>
<g opacity="0.7">
	<path fill="#FFFFFF" d="M1395.8,659.5l-1-0.5c0.6-1.3,0.7-2.3,0.2-3c-0.2-0.3-0.5-0.6-0.8-0.7c-0.3-0.2-0.7-0.2-1-0.2
		c-0.3,0-0.7,0.1-0.9,0.3c-0.3,0.2-0.5,0.5-0.7,1c-0.2,0.6-0.3,1.5-0.4,2.7c0,1.2-0.1,2-0.3,2.4c-0.2,0.6-0.6,1.1-1.1,1.5
		c-0.4,0.3-0.8,0.5-1.3,0.5c-0.5,0-0.9,0-1.4-0.3c-0.4-0.2-0.8-0.5-1.1-1c-0.3-0.4-0.5-0.9-0.5-1.5c-0.1-0.5,0.1-1.2,0.3-2.1
		l1.1,0.4c-0.2,0.7-0.3,1.2-0.3,1.5c0,0.4,0.1,0.7,0.3,1c0.3,0.4,0.6,0.6,1,0.7c0.4,0.1,0.8,0,1.1-0.2c0.2-0.1,0.4-0.3,0.5-0.5
		c0.1-0.2,0.2-0.5,0.3-0.9c0-0.2,0.1-0.8,0.1-1.9c0-1.2,0.2-2.2,0.4-2.8c0.3-0.6,0.6-1.1,1.1-1.4c0.7-0.5,1.5-0.6,2.3-0.5
		c0.9,0.2,1.6,0.6,2.1,1.4c0.4,0.6,0.6,1.2,0.6,1.9C1396.4,657.8,1396.2,658.6,1395.8,659.5z"/>
	<path fill="#FFFFFF" d="M1380.9,654.3l-3.6-5.5l0.9-0.6l3,4.5l3-2l-2.9-4.5l0.9-0.6l2.9,4.5l3.8-2.5l-2.9-4.5l0.9-0.6l3.6,5.5
		L1380.9,654.3z"/>
	<path fill="#FFFFFF" d="M1382.9,640.3l-1-0.5c0.7-1.2,0.9-2.2,0.4-3c-0.2-0.3-0.5-0.6-0.8-0.8c-0.3-0.2-0.7-0.3-1-0.3
		c-0.3,0-0.7,0.1-1,0.3c-0.3,0.2-0.6,0.5-0.8,0.9c-0.3,0.6-0.4,1.4-0.6,2.6c-0.1,1.2-0.3,2-0.4,2.3c-0.3,0.6-0.6,1.1-1.2,1.4
		c-0.4,0.3-0.9,0.4-1.4,0.4c-0.5,0-0.9-0.1-1.4-0.4c-0.4-0.2-0.8-0.6-1-1c-0.3-0.5-0.4-1-0.4-1.5c0-0.5,0.2-1.2,0.5-2l1.1,0.4
		c-0.3,0.7-0.4,1.2-0.4,1.5c0,0.4,0.1,0.7,0.3,1c0.2,0.4,0.6,0.6,0.9,0.8c0.4,0.1,0.8,0.1,1.1-0.2c0.2-0.1,0.4-0.3,0.5-0.5
		c0.1-0.2,0.3-0.5,0.4-0.9c0-0.2,0.1-0.8,0.2-1.9c0.1-1.2,0.3-2.1,0.6-2.8c0.3-0.6,0.7-1.1,1.2-1.4c0.7-0.4,1.5-0.5,2.3-0.3
		s1.5,0.7,2,1.5c0.4,0.6,0.5,1.2,0.5,1.9C1383.7,638.6,1383.4,639.4,1382.9,640.3z"/>
	<path fill="#FFFFFF" d="M1368.5,634.3l-0.6-1l10-5.7l0.6,1L1368.5,634.3z"/>
	<path fill="#FFFFFF" d="M1362.1,623.1c-0.8-1.5-1-3.1-0.5-4.7c0.5-1.6,1.5-2.7,3-3.5c1.5-0.8,3-0.9,4.6-0.4c1.6,0.5,2.8,1.5,3.5,3
		c0.8,1.5,0.9,3,0.4,4.6c-0.5,1.6-1.5,2.7-2.9,3.5c-1,0.5-2,0.7-3.1,0.7s-2.1-0.3-3-0.9C1363.3,624.8,1362.6,624,1362.1,623.1z
		 M1363.1,622.5c0.4,0.8,1,1.4,1.7,1.8c0.7,0.5,1.5,0.7,2.4,0.8c0.9,0,1.7-0.2,2.5-0.6c1.2-0.6,2-1.6,2.4-2.8
		c0.4-1.3,0.3-2.5-0.3-3.7c-0.4-0.8-1-1.4-1.7-1.9c-0.7-0.5-1.5-0.7-2.4-0.8c-0.9,0-1.7,0.2-2.5,0.6c-0.8,0.4-1.4,1-1.9,1.7
		c-0.5,0.7-0.7,1.5-0.7,2.4C1362.5,620.9,1362.7,621.8,1363.1,622.5z"/>
	<path fill="#FFFFFF" d="M1367.3,607.3l-10.4,4.8l-0.1-0.2l4.8-10.6l-8,3.7l-0.5-1l10.4-4.8l0.1,0.2l-4.7,10.5l7.9-3.6L1367.3,607.3
		z"/>
	<path fill="#FFFFFF" d="M1350.6,597.9l-2.5-6.1l1-0.4l2.1,5l3.3-1.4l-2-5l1-0.4l2,5l4.2-1.7l-2-5l1-0.4l2.5,6L1350.6,597.9z"/>
	<path fill="#FFFFFF" d="M1355.2,584.5l-0.9-0.7c0.9-1.1,1.3-2,0.9-2.9c-0.1-0.4-0.3-0.7-0.6-0.9c-0.3-0.3-0.6-0.4-0.9-0.5
		c-0.3-0.1-0.7,0-1,0.1c-0.4,0.1-0.7,0.4-0.9,0.8c-0.4,0.5-0.7,1.3-1,2.5c-0.3,1.1-0.6,1.9-0.8,2.2c-0.4,0.6-0.8,1-1.4,1.2
		c-0.5,0.2-0.9,0.2-1.4,0.1c-0.5-0.1-0.9-0.3-1.3-0.6c-0.4-0.3-0.6-0.7-0.8-1.2c-0.2-0.5-0.2-1-0.2-1.6c0.1-0.5,0.4-1.2,0.9-1.9
		l1,0.6c-0.4,0.6-0.6,1.1-0.7,1.4c-0.1,0.3,0,0.7,0.1,1c0.2,0.4,0.4,0.7,0.8,0.9c0.4,0.2,0.7,0.2,1.1,0.1c0.2-0.1,0.4-0.2,0.6-0.4
		c0.2-0.2,0.4-0.4,0.5-0.8c0.1-0.2,0.3-0.8,0.6-1.8c0.3-1.2,0.7-2,1.1-2.6c0.4-0.5,0.9-0.9,1.4-1.1c0.8-0.3,1.6-0.2,2.4,0.1
		c0.8,0.4,1.3,1,1.7,1.8c0.2,0.7,0.3,1.3,0.1,2C1356.2,583,1355.8,583.7,1355.2,584.5z"/>
	<path fill="#FFFFFF" d="M1350.5,564.8l-11,3.3l-0.7-2.3c-0.5-1.6-0.7-2.9-0.7-3.7c0.1-1.2,0.4-2.2,1.2-3.1c0.7-0.9,1.7-1.5,3-1.9
		c1.1-0.3,2.1-0.4,3.1-0.2c1,0.2,1.8,0.7,2.4,1.3c0.6,0.6,1.1,1.6,1.6,3L1350.5,564.8z M1349.2,564l-0.4-1.3
		c-0.5-1.5-0.9-2.5-1.2-3.1c-0.5-0.7-1.2-1.2-2-1.5c-0.8-0.3-1.8-0.2-2.8,0.1c-1.1,0.3-1.9,0.8-2.5,1.6c-0.6,0.7-0.9,1.6-0.9,2.6
		c0,0.7,0.2,1.9,0.7,3.5l0.2,0.8L1349.2,564z"/>
	<path fill="#FFFFFF" d="M1335.2,553.1l-1.6-6.4l1.1-0.3l1.3,5.3l3.5-0.9l-1.3-5.2l1.1-0.3l1.3,5.2l4.4-1.1l-1.3-5.2l1.1-0.3
		l1.6,6.3L1335.2,553.1z"/>
	<path fill="#FFFFFF" d="M1330.6,533.5l-1.3-6.4l1.1-0.2l1,5.3l3.5-0.7l-1-5.3l1.1-0.2l1,5.3l4.4-0.9l-1-5.3l1.1-0.2l1.2,6.4
		L1330.6,533.5z"/>
	<path fill="#FFFFFF" d="M1328.5,522l-0.2-1.3l4-3.4l-4.8-2l-0.2-1.3l6,2.5l5.3-4.5l0.2,1.3l-4.3,3.7l5.2,2.2l0.2,1.3l-6.4-2.7
		L1328.5,522z"/>
	<path fill="#FFFFFF" d="M1326.5,508.2l-0.3-2.3c-0.2-1.3-0.2-2.2-0.1-2.7c0.1-0.7,0.4-1.2,0.8-1.7c0.5-0.5,1.1-0.7,1.8-0.8
		c0.8-0.1,1.4,0,1.9,0.4c0.5,0.3,0.9,0.9,1.2,1.5c0.2,0.5,0.4,1.5,0.5,2.9l0.1,0.8l5.3-0.6l0.1,1.1L1326.5,508.2z M1327.4,506.9
		l3.9-0.4l-0.2-1.9c-0.1-0.8-0.2-1.3-0.4-1.7c-0.2-0.3-0.4-0.6-0.8-0.8c-0.3-0.2-0.7-0.2-1.1-0.2c-0.4,0-0.7,0.2-1,0.4
		c-0.3,0.2-0.5,0.5-0.6,0.9c-0.1,0.4-0.1,0.9,0,1.7L1327.4,506.9z"/>
	<path fill="#FFFFFF" d="M1325.1,495.1l-0.5-6.5l1.1-0.1l0.4,5.4l3.6-0.3l-0.4-5.4l1.1-0.1l0.4,5.4l4.5-0.4l-0.4-5.4l1.1-0.1
		l0.5,6.5L1325.1,495.1z"/>
	<path fill="#FFFFFF" d="M1324.2,482.9l-0.1-2.3c-0.1-1.3,0-2.1,0-2.6c0.1-0.7,0.4-1.3,0.9-1.7c0.5-0.4,1.1-0.7,1.9-0.7
		c0.6,0,1.2,0.1,1.7,0.4c0.5,0.3,0.9,0.7,1.1,1.2c0.3,0.5,0.4,1.3,0.5,2.2l5.1-4.3l0.1,1.4l-5.1,4.3l0,0.6l5.3-0.2l0,1.1
		L1324.2,482.9z M1325.3,481.7l3.9-0.2l-0.1-2c0-0.8-0.1-1.3-0.3-1.7c-0.2-0.4-0.4-0.6-0.7-0.8c-0.3-0.2-0.7-0.3-1.1-0.3
		c-0.4,0-0.7,0.1-1,0.4s-0.5,0.5-0.6,0.8c-0.1,0.3-0.2,0.9-0.1,1.7L1325.3,481.7z"/>
	<path fill="#FFFFFF" d="M1323.8,469.8l0-1.1l11.5-0.2l0,1.1L1323.8,469.8z"/>
	<path fill="#FFFFFF" d="M1335.2,463.2l-11.4-1.9l0-0.2l9.5-4.4l-9.3-4.8l0-0.2l11.5-1.4l0,1.1l-8.2,0.9l8.1,4.2l0,0.3l-8.4,3.9
		l8.2,1.3L1335.2,463.2z"/>
	<path fill="#FFFFFF" d="M1324.4,444l0.4-6.5l1.1,0.1l-0.4,5.4l3.6,0.2l0.4-5.4l1.1,0.1l-0.4,5.4l4.5,0.3l0.4-5.4l1.1,0.1l-0.4,6.5
		L1324.4,444z"/>
	<path fill="#FFFFFF" d="M1336.7,433l-11.4-1.2l0-0.2l9.6-6.6l-8.7-1l0.1-1.1l11.4,1.2l0,0.3l-9.4,6.6l8.6,0.9L1336.7,433z"/>
	<path fill="#FFFFFF" d="M1328.1,417.7l-1.1-0.2l0.9-6.2l1.1,0.2l-0.4,2.5l10.2,1.5l-0.2,1.2l-10.2-1.5L1328.1,417.7z"/>
	<path fill="#FFFFFF" d="M1329.6,401.4l12.2-3.2l-0.2,1.2l-4,1.1l-0.9,4.9l3.4,2.4l-0.2,1.3l-10.3-7.4L1329.6,401.4z M1332,402
		l3.7,2.7l0.7-3.9L1332,402z"/>
	<path fill="#FFFFFF" d="M1336.3,380.9l0.5,1c-0.7,0.3-1.4,0.8-1.8,1.4c-0.5,0.6-0.8,1.3-1,2.1c-0.2,0.9-0.2,1.8,0.1,2.6
		c0.2,0.9,0.7,1.6,1.3,2.2c0.6,0.6,1.4,1,2.3,1.2c1.4,0.3,2.6,0.1,3.7-0.6c1.1-0.7,1.9-1.8,2.2-3.2c0.4-1.6,0.1-3-0.9-4.4l0.9-0.7
		c0.6,0.7,1,1.5,1.2,2.5c0.2,0.9,0.2,1.9-0.1,2.9c-0.5,2-1.5,3.3-3,4.2c-1.3,0.7-2.8,0.8-4.3,0.5c-1.6-0.4-2.9-1.3-3.7-2.7
		c-0.8-1.4-1.1-3-0.7-4.7c0.2-1,0.7-1.9,1.3-2.7C1334.6,381.8,1335.4,381.2,1336.3,380.9z"/>
	<path fill="#FFFFFF" d="M1335.7,374.8l0.3-1.1l11.1,3l-0.3,1.1L1335.7,374.8z"/>
	<path fill="#FFFFFF" d="M1336.3,360.8l0.5-1.6l1.6,2.9l-0.3,1L1336.3,360.8z M1339,362.3c0.5-1.7,1.5-2.9,3-3.6
		c1.5-0.8,3-0.9,4.6-0.4c1.6,0.5,2.8,1.5,3.6,2.9c0.8,1.5,0.9,3,0.4,4.6c-0.5,1.6-1.5,2.8-2.9,3.6c-1.5,0.8-3,0.9-4.6,0.4
		c-1.1-0.3-1.9-0.9-2.7-1.7c-0.7-0.8-1.2-1.7-1.5-2.7C1338.7,364.4,1338.7,363.4,1339,362.3z M1340.1,362.6
		c-0.3,0.8-0.3,1.6-0.1,2.5c0.2,0.9,0.6,1.6,1.2,2.2c0.6,0.6,1.3,1.1,2.2,1.4c1.3,0.4,2.5,0.3,3.7-0.3c1.2-0.6,2-1.6,2.4-2.8
		c0.3-0.8,0.3-1.7,0.1-2.5c-0.2-0.9-0.6-1.6-1.2-2.2c-0.6-0.6-1.3-1.1-2.2-1.4c-0.9-0.3-1.7-0.3-2.5-0.1s-1.6,0.6-2.2,1.2
		C1340.8,361.1,1340.4,361.8,1340.1,362.6z"/>
	<path fill="#FFFFFF" d="M1353.9,354.8l-10.8-3.9l0.1-0.2l10.9-4.1l-8.2-3l0.4-1.1l10.8,3.9l-0.1,0.2l-10.8,4.1l8.1,3L1353.9,354.8z
		"/>
	<path fill="#FFFFFF" d="M1351.7,328.9l0.5-1l6.3,2.8c0.7,0.3,1.2,0.5,1.4,0.6c0.4,0.1,0.8,0.2,1.2,0.1c0.4-0.1,0.7-0.3,1.1-0.6
		c0.4-0.3,0.6-0.7,0.8-1.1c0.2-0.3,0.2-0.7,0.2-1.1c0-0.4-0.1-0.7-0.3-1.1c-0.2-0.3-0.4-0.6-0.7-0.9c-0.2-0.2-0.8-0.5-1.6-0.8
		l-6.3-2.8l0.5-1l6.3,2.8c0.9,0.4,1.6,0.8,2.1,1.3c0.5,0.4,0.8,1,1,1.8c0.2,0.7,0.1,1.5-0.2,2.3c-0.4,0.8-0.9,1.5-1.6,1.9
		c-0.7,0.4-1.4,0.6-2.1,0.5c-0.5-0.1-1.2-0.3-2.3-0.8L1351.7,328.9z"/>
	<path fill="#FFFFFF" d="M1357.3,316.6l0.6-1.2l5.2-0.5l-2.8-4.4l0.6-1.2l3.4,5.5l6.9-0.6l-0.6,1.2l-5.7,0.5l3,4.8l-0.6,1.2
		l-3.7-5.9L1357.3,316.6z"/>
</g>
<rect x="1377.2" y="1028.1" transform="matrix(0.9816 0.191 -0.191 0.9816 287.1465 -288.6027)" fill="#26539C" width="526.6" height="634"/>
</svg>
