<?xml version="1.0" encoding="utf-8"?>
<!-- Generator: Adobe Illustrator 16.0.0, SVG Export Plug-In . SVG Version: 6.00 Build 0)  -->
<!DOCTYPE svg PUBLIC "-//W3C//DTD SVG 1.1//EN" "http://www.w3.org/Graphics/SVG/1.1/DTD/svg11.dtd">
<svg version="1.1" xmlns="http://www.w3.org/2000/svg" xmlns:xlink="http://www.w3.org/1999/xlink" x="0px" y="0px" width="19.7px"
	 height="25px" viewBox="0 0 19.7 25" enable-background="new 0 0 19.7 25" xml:space="preserve">
<g id="Capa_1" display="none">
	
		<circle display="inline" fill="none" stroke="#364E98" stroke-width="0.7506" stroke-miterlimit="10" stroke-dasharray="4.7753" cx="563.3" cy="-410.7" r="24"/>
	
		<image display="inline" overflow="visible" width="776" height="978" xlink:href="B0612237.jpg"  transform="matrix(0.9999 0 0 0.9999 -181.71 -482.2109)">
	</image>
</g>
<g id="Capa_3">
	
		<path fill="none" stroke="#FFDA03" stroke-width="1.5208" stroke-linecap="round" stroke-linejoin="round" stroke-miterlimit="10" d="
		M18.5,9.8c0,4.8-4.6,9.6-8.7,14.6C5.3,18.7,1,14.6,1,9.8C1,5,5,1.1,9.8,1.1S18.5,5,18.5,9.8z"/>
	<path fill="none" stroke="#FFDA03" stroke-width="0.7904" stroke-miterlimit="10" d="M12.7,10c0-1.6-1.3-2.9-2.9-2.9l0,0
		C8.2,7,6.9,8.3,6.9,10l0,0c0,1.6,1.3,2.9,2.9,2.9l0,0C11.4,12.9,12.7,11.6,12.7,10L12.7,10z"/>
</g>
</svg>
