<?xml version="1.0" encoding="utf-8"?>
<!-- Generator: Adobe Illustrator 21.0.2, SVG Export Plug-In . SVG Version: 6.00 Build 0)  -->
<svg version="1.1" id="Layer_1" xmlns="http://www.w3.org/2000/svg" xmlns:xlink="http://www.w3.org/1999/xlink" x="0px" y="0px"
	 viewBox="0 0 168.4 167.7" style="enable-background:new 0 0 168.4 167.7;" xml:space="preserve">
<style type="text/css">
	.st0{fill:#FFFFFF;}
</style>
<g>
	<path class="st0" d="M39.4,63.4v28c0,1.2,0,2.4,0.1,3.5s0.3,2.1,0.6,2.9c0.4,0.8,0.9,1.4,1.7,1.9c0.7,0.5,1.8,0.7,3.2,0.7
		c2.2,0,3.8-0.7,4.6-2c0.8-1.3,1.3-3.6,1.3-6.7V63.4h4.4v28c0,0.7,0,1.5-0.1,2.5c0,0.9-0.2,1.9-0.3,2.8c-0.2,0.9-0.5,1.9-0.9,2.8
		s-1,1.7-1.8,2.4c-0.8,0.7-1.7,1.3-2.9,1.7c-1.2,0.4-2.6,0.7-4.4,0.7c-2.5,0-4.4-0.4-5.8-1.2c-1.4-0.8-2.4-1.8-3-3s-1-2.6-1.1-4.1
		s-0.2-3-0.2-4.5v-28h4.6V63.4z"/>
	<path class="st0" d="M59.4,63.4h4.9l5.4,14.4l5.6-14.4h4.5l-7.9,18.4l8.9,21.6h-5.2l-6.4-16.6l-6.4,16.7h-4.5l8.8-20.9L59.4,63.4z"
		/>
	<path class="st0" d="M84.7,63.4h7.8c2.1,0,3.9,0.2,5.4,0.6c1.4,0.4,2.7,1.3,3.8,2.6c0.3,0.4,0.6,0.8,0.9,1.3s0.6,1.1,0.9,1.8
		c0.3,0.7,0.5,1.5,0.6,2.4c0.2,0.9,0.2,2,0.2,3.2c0,1.6-0.2,3.1-0.6,4.5s-1,2.7-1.9,3.8c-0.9,1.1-2,1.9-3.4,2.6
		c-1.4,0.6-3.1,0.9-5.2,0.9h-3.9v16.3h-4.6C84.7,103.4,84.7,63.4,84.7,63.4z M89.3,83.3h3.8c0.9,0,1.8-0.1,2.6-0.3
		c0.8-0.2,1.5-0.6,2.1-1.1c0.6-0.6,1.1-1.4,1.4-2.4s0.5-2.4,0.5-4c0-2-0.3-3.6-0.8-4.7s-1.2-1.9-1.9-2.4c-0.7-0.5-1.5-0.8-2.3-0.9
		s-1.4-0.1-2-0.1h-3.5v15.9H89.3z"/>
	<path class="st0" d="M112.3,63.4v5.1h-4.5v-5.1H112.3z M108,73.8h4.1v29.6H108V73.8z"/>
	<path class="st0" d="M116.8,73.8h3.8v4.5c0.1-0.3,0.3-0.8,0.6-1.4c0.3-0.6,0.7-1.2,1.2-1.7c0.5-0.6,1.2-1.1,1.9-1.5
		c0.8-0.4,1.7-0.6,2.8-0.6c1.3,0,2.4,0.3,3.3,0.8c0.9,0.6,1.7,1.3,2.1,2.2c0.5,0.9,0.8,2.1,0.9,3.7c0.1,1.5,0.1,3.1,0.1,4.8v18.8h-4
		V84.7c0-0.9,0-1.8-0.1-2.8c0-0.9-0.2-1.7-0.4-2.5c-0.2-0.7-0.6-1.3-1.1-1.8c-0.5-0.5-1.2-0.7-2.1-0.7c-1.1,0-1.9,0.3-2.6,1
		c-0.6,0.7-1.1,1.5-1.4,2.4c-0.3,1-0.5,2-0.6,3.1s-0.1,2.1-0.1,2.9v17.1H117V73.8H116.8z"/>
</g>
</svg>
